<svg width="34" height="33" fill="none" xmlns="http://www.w3.org/2000/svg"><g filter="url(#filter0_d_50_167)"><path d="M27.165 6.063a23.429 23.429 0 00-5.97-1.936.087.087 0 00-.056.007.092.092 0 00-.04.04c-.257.48-.543 1.104-.744 1.597a21.368 21.368 0 00-6.706 0 16.465 16.465 0 00-.754-1.597.095.095 0 00-.041-.04.09.09 0 00-.056-.007 23.362 23.362 0 00-5.97 1.936.087.087 0 00-.04.034c-3.802 5.94-4.845 11.734-4.333 17.455a.109.109 0 00.038.072 23.939 23.939 0 007.325 3.872.091.091 0 00.056-.001.096.096 0 00.046-.035 18.168 18.168 0 001.499-2.548.1.1 0 00-.018-.113.09.09 0 00-.033-.022 15.727 15.727 0 01-2.287-1.14.096.096 0 01-.033-.033.102.102 0 01.023-.13c.154-.121.306-.245.454-.373a.088.088 0 01.095-.013c4.8 2.29 9.997 2.29 14.742 0a.087.087 0 01.095.012c.147.126.3.253.456.374a.098.098 0 01.037.083.102.102 0 01-.013.045.096.096 0 01-.032.034 14.76 14.76 0 01-2.289 1.14.099.099 0 00-.06.097.1.1 0 00.01.04c.44.891.944 1.74 1.497 2.546a.094.094 0 00.046.035.088.088 0 00.057 0 23.861 23.861 0 007.336-3.87.097.097 0 00.039-.07c.61-6.615-1.024-12.361-4.338-17.454a.076.076 0 00-.038-.039v.002zM12.136 20.067c-1.446 0-2.636-1.386-2.636-3.09s1.168-3.092 2.636-3.092c1.479 0 2.66 1.4 2.636 3.092 0 1.704-1.168 3.09-2.636 3.09zm9.747 0c-1.446 0-2.636-1.386-2.636-3.09s1.167-3.092 2.636-3.092c1.479 0 2.66 1.4 2.636 3.092 0 1.704-1.156 3.09-2.636 3.09z" fill="#AB8476"/></g><defs><filter id="filter0_d_50_167" x="-1" y="-2" width="36" height="37" filterUnits="userSpaceOnUse" color-interpolation-filters="sRGB"><feFlood flood-opacity="0" result="BackgroundImageFix"/><feColorMatrix in="SourceAlpha" values="0 0 0 0 0 0 0 0 0 0 0 0 0 0 0 0 0 0 127 0" result="hardAlpha"/><feOffset/><feGaussianBlur stdDeviation="1"/><feComposite in2="hardAlpha" operator="out"/><feColorMatrix values="0 0 0 0 0.229167 0 0 0 0 0.0315538 0 0 0 0 0.0185243 0 0 0 1 0"/><feBlend in2="BackgroundImageFix" result="effect1_dropShadow_50_167"/><feBlend in="SourceGraphic" in2="effect1_dropShadow_50_167" result="shape"/></filter></defs></svg>