<svg width="33" height="33" fill="none" xmlns="http://www.w3.org/2000/svg"><path fill-rule="evenodd" clip-rule="evenodd" d="M9.229 5.46a81.65 81.65 0 0114.543 0l2.086.186a4.51 4.51 0 014.062 3.84 48.48 48.48 0 010 14.027 4.51 4.51 0 01-4.062 3.84l-2.086.187a81.645 81.645 0 01-14.543 0l-2.087-.186a4.511 4.511 0 01-4.061-3.84 48.48 48.48 0 010-14.027 4.51 4.51 0 014.061-3.84L9.23 5.46zM8.052 9.405a1.031 1.031 0 00-1.52.908v13.062a1.031 1.031 0 102.062 0V12.039l7.417 3.994c.306.164.673.164.978 0l7.418-3.994v11.336a1.031 1.031 0 102.062 0V10.312a1.031 1.031 0 00-1.52-.907L16.5 13.954l-8.448-4.55z" fill="#AB8476"/></svg>