<svg width="33" height="33" fill="none" xmlns="http://www.w3.org/2000/svg"><path d="M16.5 12.031a4.469 4.469 0 100 8.938 4.469 4.469 0 000-8.938z" fill="#AB8476"/><path fill-rule="evenodd" clip-rule="evenodd" d="M9.308 4.237c4.741-.53 9.643-.53 14.384 0 2.61.292 4.716 2.348 5.022 4.968a62.797 62.797 0 010 14.59c-.306 2.62-2.412 4.676-5.022 4.968-4.741.53-9.643.53-14.384 0-2.61-.292-4.716-2.349-5.022-4.968a62.799 62.799 0 010-14.59c.306-2.62 2.412-4.676 5.022-4.968zM23.375 8.25a1.375 1.375 0 100 2.75 1.375 1.375 0 000-2.75zM9.969 16.5a6.531 6.531 0 1113.062 0 6.531 6.531 0 01-13.062 0z" fill="#AB8476"/></svg>