<svg width="34" height="33" viewBox="0 0 34 33" fill="none" xmlns="http://www.w3.org/2000/svg">
<g filter="url(#filter0_d_50_167)">
<path d="M27.1653 6.06258C25.2636 5.15004 23.2567 4.49933 21.1949 4.12674C21.1761 4.12291 21.1566 4.12543 21.1392 4.13393C21.1219 4.14242 21.1075 4.15646 21.0983 4.17402C20.8417 4.65319 20.5557 5.27802 20.3552 5.77125C18.1326 5.4183 15.8717 5.4183 13.6491 5.77125C13.426 5.22474 13.1743 4.69152 12.895 4.17402C12.8854 4.15686 12.871 4.14315 12.8537 4.13471C12.8365 4.12627 12.8172 4.12349 12.7984 4.12674C10.7364 4.49855 8.72946 5.14929 6.82806 6.06258C6.81197 6.06964 6.79832 6.08168 6.78895 6.09708C2.98551 12.0375 1.94298 17.8309 2.45508 23.5516C2.45632 23.5658 2.46033 23.5795 2.46684 23.5921C2.47336 23.6046 2.48225 23.6156 2.49297 23.6244C4.70708 25.3394 7.18386 26.6486 9.81753 27.4961C9.8361 27.5017 9.85586 27.5013 9.87419 27.4949C9.89253 27.4885 9.90857 27.4764 9.9202 27.4603C10.4848 26.6553 10.9884 25.8056 11.4186 24.9124C11.4246 24.9002 11.4281 24.8868 11.4288 24.8731C11.4295 24.8594 11.4274 24.8457 11.4227 24.8329C11.4179 24.8201 11.4106 24.8085 11.4013 24.7989C11.392 24.7892 11.3808 24.7817 11.3685 24.777C10.5783 24.4608 9.81321 24.0797 9.08056 23.6372C9.06712 23.6291 9.05582 23.6176 9.04765 23.6038C9.03949 23.59 9.03471 23.5743 9.03374 23.5581C9.03277 23.5419 9.03564 23.5258 9.04211 23.511C9.04857 23.4963 9.05842 23.4834 9.07078 23.4736C9.22507 23.3529 9.37666 23.2285 9.52543 23.1005C9.53845 23.0895 9.55414 23.0824 9.57075 23.0802C9.58737 23.0779 9.60426 23.0805 9.61954 23.0877C14.4203 25.3788 19.617 25.3788 24.3616 23.0877C24.377 23.0803 24.3941 23.0775 24.411 23.0798C24.4278 23.082 24.4438 23.0892 24.4569 23.1005C24.6036 23.2257 24.7575 23.3535 24.9128 23.4736C24.925 23.4833 24.9348 23.4959 24.9413 23.5104C24.9478 23.5249 24.9508 23.5408 24.9501 23.5568C24.9493 23.5728 24.9449 23.5883 24.9371 23.6021C24.9293 23.6159 24.9185 23.6275 24.9054 23.6359C24.1744 24.0825 23.4087 24.4638 22.6163 24.7757C22.6039 24.7806 22.5927 24.7882 22.5834 24.798C22.5741 24.8077 22.5668 24.8195 22.5621 24.8324C22.5573 24.8452 22.5553 24.859 22.556 24.8728C22.5567 24.8866 22.5601 24.9001 22.5662 24.9124C23.0062 25.8043 23.5097 26.6527 24.0633 27.459C24.0747 27.4754 24.0908 27.4877 24.1092 27.4941C24.1276 27.5006 24.1475 27.5008 24.166 27.4948C26.8041 26.65 29.2849 25.3406 31.5016 23.6231C31.5124 23.6151 31.5214 23.6049 31.5282 23.593C31.5349 23.5811 31.5392 23.5678 31.5407 23.5541C32.1518 16.939 30.5165 11.1929 27.2031 6.09964C27.1954 6.08246 27.1819 6.06883 27.1653 6.0613V6.06258ZM12.136 20.0671C10.6902 20.0671 9.49977 18.6807 9.49977 16.9761C9.49977 15.2728 10.6682 13.8852 12.136 13.8852C13.6149 13.8852 14.7955 15.2856 14.7723 16.9774C14.7723 18.6807 13.6039 20.0671 12.136 20.0671V20.0671ZM21.883 20.0671C20.4371 20.0671 19.2467 18.6807 19.2467 16.9761C19.2467 15.2728 20.4139 13.8852 21.883 13.8852C23.3618 13.8852 24.5424 15.2856 24.5192 16.9774C24.5192 18.6807 23.363 20.0671 21.883 20.0671V20.0671Z" fill="#AB8476"/>
</g>
<defs>
<filter id="filter0_d_50_167" x="-1" y="-2" width="36" height="37" filterUnits="userSpaceOnUse" color-interpolation-filters="sRGB">
<feFlood flood-opacity="0" result="BackgroundImageFix"/>
<feColorMatrix in="SourceAlpha" type="matrix" values="0 0 0 0 0 0 0 0 0 0 0 0 0 0 0 0 0 0 127 0" result="hardAlpha"/>
<feOffset/>
<feGaussianBlur stdDeviation="1"/>
<feComposite in2="hardAlpha" operator="out"/>
<feColorMatrix type="matrix" values="0 0 0 0 0.229167 0 0 0 0 0.0315538 0 0 0 0 0.0185243 0 0 0 1 0"/>
<feBlend mode="normal" in2="BackgroundImageFix" result="effect1_dropShadow_50_167"/>
<feBlend mode="normal" in="SourceGraphic" in2="effect1_dropShadow_50_167" result="shape"/>
</filter>
</defs>
</svg>
