<svg width="33" height="33" viewBox="0 0 33 33" fill="none" xmlns="http://www.w3.org/2000/svg">
<path fill-rule="evenodd" clip-rule="evenodd" d="M9.2288 5.45993C14.0668 5.02736 18.9337 5.02736 23.7717 5.45993L25.858 5.64647C27.9375 5.8324 29.6177 7.42105 29.9197 9.48688C30.5997 14.1376 30.5997 18.8625 29.9197 23.5132C29.6177 25.579 27.9375 27.1676 25.858 27.3536L23.7717 27.5401C18.9337 27.9727 14.0668 27.9727 9.22881 27.5401L7.14246 27.3536C5.06296 27.1676 3.38277 25.579 3.08075 23.5132C2.40082 18.8624 2.40082 14.1376 3.08075 9.48688C3.38277 7.42105 5.06296 5.8324 7.14246 5.64647L9.2288 5.45993ZM8.05164 9.40453C7.73206 9.23245 7.34554 9.24105 7.03392 9.42717C6.7223 9.6133 6.53148 9.94955 6.53148 10.3125V23.375C6.53148 23.9446 6.99319 24.4063 7.56273 24.4063C8.13227 24.4063 8.59398 23.9446 8.59398 23.375V12.0391L16.0113 16.033C16.3165 16.1974 16.6839 16.1974 16.9891 16.033L24.4065 12.0391V23.375C24.4065 23.9446 24.8682 24.4063 25.4377 24.4063C26.0073 24.4063 26.469 23.9446 26.469 23.375V10.3125C26.469 9.94955 26.2782 9.6133 25.9665 9.42717C25.6549 9.24105 25.2684 9.23245 24.9488 9.40453L16.5002 13.9538L8.05164 9.40453Z" fill="#AB8476"/>
</svg>
