<svg width="33" height="19" viewBox="0 0 33 19" fill="none" xmlns="http://www.w3.org/2000/svg">
<path d="M18.6141 9.50001C18.6141 14.6253 14.4478 18.7813 9.306 18.7813C8.08554 18.7829 6.87672 18.5441 5.74854 18.0786C4.62036 17.613 3.59493 16.9298 2.73079 16.068C1.86665 15.2061 1.18072 14.1825 0.712169 13.0556C0.243619 11.9287 0.00162403 10.7205 0 9.50001C0 4.37264 4.16625 0.218761 9.306 0.218761C10.5266 0.216864 11.7357 0.455441 12.8641 0.920866C13.9925 1.38629 15.0182 2.06945 15.8825 2.93132C16.7469 3.79319 17.433 4.81689 17.9017 5.94396C18.3704 7.07103 18.6124 8.27938 18.6141 9.50001V9.50001ZM28.8234 9.50001C28.8234 14.3263 26.7403 18.2368 24.1704 18.2368C21.6006 18.2368 19.5174 14.3242 19.5174 9.50001C19.5174 4.67376 21.6006 0.763261 24.1704 0.763261C26.7403 0.763261 28.8234 4.67582 28.8234 9.50001ZM33 9.50001C33 13.823 32.2678 17.3272 31.3624 17.3272C30.459 17.3272 29.7268 13.8209 29.7268 9.50001C29.7268 5.17701 30.459 1.67282 31.3644 1.67282C32.2678 1.67282 33 5.17701 33 9.50001Z" fill="#AB8476"/>
</svg>
