<svg width="33" height="33" viewBox="0 0 33 33" fill="none" xmlns="http://www.w3.org/2000/svg">
<path d="M16.4999 12.0313C14.0319 12.0313 12.0312 14.032 12.0312 16.5C12.0312 18.968 14.0319 20.9688 16.4999 20.9688C18.968 20.9688 20.9687 18.968 20.9687 16.5C20.9687 14.032 18.968 12.0313 16.4999 12.0313Z" fill="#AB8476"/>
<path fill-rule="evenodd" clip-rule="evenodd" d="M9.30806 4.23702C14.0492 3.70713 18.9507 3.70713 23.6919 4.23702C26.3022 4.52876 28.4076 6.58545 28.7139 9.2049C29.2808 14.0518 29.2808 18.9482 28.7139 23.7951C28.4076 26.4145 26.3022 28.4712 23.6919 28.763C18.9507 29.2929 14.0492 29.2929 9.30806 28.763C6.69776 28.4712 4.59237 26.4145 4.286 23.7951C3.71912 18.9482 3.71912 14.0518 4.286 9.2049C4.59237 6.58545 6.69776 4.52876 9.30806 4.23702ZM23.3749 8.25C22.6156 8.25 21.9999 8.86561 21.9999 9.625C21.9999 10.3844 22.6156 11 23.3749 11C24.1343 11 24.7499 10.3844 24.7499 9.625C24.7499 8.86561 24.1343 8.25 23.3749 8.25ZM9.9687 16.5C9.9687 12.8929 12.8928 9.96875 16.4999 9.96875C20.1071 9.96875 23.0312 12.8929 23.0312 16.5C23.0312 20.1071 20.1071 23.0313 16.4999 23.0313C12.8928 23.0313 9.9687 20.1071 9.9687 16.5Z" fill="#AB8476"/>
</svg>
