<svg width="32" height="33" viewBox="0 0 32 33" fill="none" xmlns="http://www.w3.org/2000/svg">
<path d="M29.0797 8.56245C29.157 8.45139 29.0428 8.308 28.9192 8.3574C28.0409 8.70847 27.123 8.94534 26.1867 9.06208C27.2293 8.41978 28.0337 7.44205 28.4799 6.28448C28.5253 6.16656 28.4004 6.06126 28.2927 6.1226C27.3238 6.67444 26.2788 7.07181 25.1932 7.30066C25.1478 7.31024 25.1009 7.29429 25.069 7.25958C24.2544 6.37315 23.1821 5.78295 22.0131 5.579C20.8196 5.37076 19.5928 5.57694 18.5251 6.16521C17.4574 6.75348 16.6093 7.69056 16.1137 8.82948C15.6425 9.91237 15.5153 11.1195 15.7477 12.2788C15.7658 12.3687 15.6975 12.4537 15.6086 12.448C13.4965 12.3127 11.4329 11.7334 9.54491 10.7449C7.66169 9.75891 5.99405 8.38726 4.64356 6.71453C4.58362 6.64029 4.47002 6.6499 4.42635 6.73536C4.00613 7.55771 3.78611 8.47427 3.7867 9.40583C3.785 10.3331 4.00566 11.2464 4.42904 12.0645C4.85243 12.8825 5.46539 13.5799 6.21337 14.0946C5.42014 14.0723 4.64237 13.8701 3.93504 13.5034C3.84388 13.4562 3.73454 13.5235 3.73928 13.6286C3.79443 14.8513 4.22971 16.0788 4.98312 17.0205C5.78488 18.0227 6.89771 18.7086 8.13337 18.9621C7.65771 19.1114 7.16387 19.1901 6.6667 19.1958C6.39612 19.1926 6.12606 19.172 5.85808 19.1342C5.75873 19.1202 5.67759 19.2175 5.71238 19.3145C6.08093 20.3423 6.73203 21.2391 7.58814 21.8938C8.50341 22.5937 9.60747 22.982 10.7467 23.0046C8.82297 24.5656 6.44788 25.4175 4.00004 25.4246C3.74851 25.4254 3.4971 25.417 3.24628 25.3994C3.10494 25.3895 3.03993 25.5837 3.16176 25.6582C5.54679 27.1178 8.27282 27.8893 11.0534 27.8858C13.1063 27.9078 15.1429 27.5077 17.0442 26.7089C18.9455 25.9101 20.6734 24.7287 22.127 23.2335C23.5805 21.7383 24.7307 19.9595 25.5101 18.0008C26.2896 16.0422 26.6828 13.943 26.6667 11.8258V11.1661C26.6667 11.1226 26.6866 11.0818 26.7202 11.0557C27.6246 10.3515 28.4199 9.51075 29.0797 8.56245Z" fill="#AB8476"/>
</svg>
